# Blender v2.81 (sub 16) OBJ File: 'chamber.blend'
# www.blender.org
mtllib spikes.mtl
o Spikes_Plane.001
v -0.350062 3.801400 8.046819
v 0.350059 3.801400 8.046818
v -0.350062 3.202396 8.046819
v 0.350059 3.202396 8.046818
v -0.000002 3.501898 7.496741
v 0.953532 3.801400 8.009257
v 1.638761 3.801401 7.881701
v 0.953532 3.202396 8.009257
v 1.638761 3.202396 7.881701
v 1.205013 3.501899 7.379010
v 2.222987 3.801400 7.750731
v 2.881700 3.801400 7.525519
v 2.222987 3.202396 7.750731
v 2.881700 3.202396 7.525519
v 2.367823 3.501898 7.084666
v 3.429346 3.801400 7.285012
v 4.055679 3.801400 6.979222
v 3.429346 3.202396 7.285012
v 4.055679 3.202396 6.979222
v 3.472225 3.501898 6.617749
v 4.552617 3.801400 6.640043
v 5.113391 3.801401 6.225602
v 4.552617 3.202396 6.640043
v 5.113391 3.202396 6.225602
v 4.497098 3.501898 5.986529
v 5.567893 3.801400 5.829895
v 6.043763 3.801401 5.318766
v 5.567893 3.202396 5.829895
v 6.043763 3.202396 5.318766
v 5.397413 3.501899 5.182591
v 6.438517 3.801401 4.864310
v 6.822882 3.801401 4.280656
v 6.438517 3.202397 4.864310
v 6.822882 3.202397 4.280656
v 6.150753 3.501898 4.240897
v 7.122004 3.801400 3.761664
v 7.434364 3.801400 3.138372
v 7.122004 3.202396 3.761664
v 7.434364 3.202396 3.138372
v 6.751146 3.501898 3.199884
v 7.628133 3.801400 2.571754
v 7.831073 3.801400 1.907260
v 7.628133 3.202396 2.571754
v 7.831073 3.202396 1.907260
v 7.185907 3.501899 2.082457
v 7.947316 3.801400 1.318431
v 8.027476 3.801401 0.624586
v 7.947316 3.202396 1.318431
v 8.027476 3.202396 0.624586
v 7.432137 3.501899 0.906362
v 8.074911 3.801400 0.021700
v 8.024111 3.801400 -0.678654
v 8.074911 3.202396 0.021700
v 8.024111 3.202396 -0.678654
v 7.468757 3.501899 -0.305078
v 7.956396 3.801401 -1.276162
v 7.821549 3.801401 -1.960218
v 7.956396 3.202396 -1.276162
v 7.821549 3.202396 -1.960218
v 7.317277 3.501898 -1.501993
v 7.642091 3.801400 -2.530926
v 7.409446 3.801400 -3.186077
v 7.642091 3.202396 -2.530926
v 7.409446 3.202396 -3.186077
v 6.989675 3.501899 -2.655274
v 7.140703 3.801401 -3.722703
v 6.792489 3.801401 -4.325180
v 7.140702 3.202396 -3.722703
v 6.792489 3.202397 -4.325180
v 6.489570 3.501898 -3.747296
v 6.461747 3.801401 -4.827707
v 6.008308 3.801400 -5.359489
v 6.461747 3.202396 -4.827707
v 6.008308 3.202396 -5.359489
v 5.791006 3.501899 -4.729883
v 5.601101 3.801401 -5.801923
v 5.073254 3.801401 -6.261744
v 5.601101 3.202396 -5.801923
v 5.073254 3.202396 -6.261744
v 4.950461 3.501898 -5.595118
v 4.588797 3.801400 -6.616219
v 4.009035 3.801400 -7.005762
v 4.588797 3.202396 -6.616219
v 4.009035 3.202396 -7.005762
v 3.988372 3.501898 -6.320300
v -4.018651 3.801400 -7.001328
v -4.597658 3.801400 -6.610400
v -4.018651 3.202396 -7.001328
v -4.597658 3.202396 -6.610400
v -3.996484 3.501898 -6.314729
v -5.081141 3.801400 -6.254625
v -5.609239 3.801400 -5.795090
v -5.081141 3.202396 -6.254625
v -5.609239 3.202396 -5.795090
v -4.957901 3.501898 -5.588648
v -6.015273 3.801400 -5.351471
v -6.467447 3.801400 -4.818757
v -6.015273 3.202396 -5.351471
v -6.467447 3.202395 -4.818757
v -5.797637 3.501898 -4.722577
v -6.798459 3.801400 -4.316416
v -7.145295 3.801400 -3.713173
v -6.798459 3.202396 -4.316416
v -7.145295 3.202396 -3.713173
v -6.494181 3.501898 -3.738657
v -7.414338 3.801400 -3.176691
v -7.645522 3.801400 -2.520941
v -7.414338 3.202396 -3.176691
v -7.645522 3.202396 -2.520941
v -6.992653 3.501898 -2.645938
v -7.823411 3.801401 -1.949801
v -7.958637 3.801400 -1.265815
v -7.823411 3.202396 -1.949801
v -7.958637 3.202396 -1.265815
v -7.319176 3.501899 -1.492365
v -8.024760 3.801401 -0.668019
v -8.073918 3.801400 0.032323
v -8.024760 3.202396 -0.668019
v -8.073918 3.202396 0.032323
v -7.469565 3.501899 -0.295201
v -8.026801 3.801400 0.635225
v -7.945105 3.801400 1.328783
v -8.026801 3.202396 0.635225
v -7.945105 3.202396 1.328783
v -7.431737 3.501898 0.916266
v -7.829184 3.801400 1.917685
v -7.624726 3.801401 2.581758
v -7.829184 3.202396 1.917685
v -7.624726 3.202396 2.581758
v -7.182527 3.501899 2.091670
v -7.429445 3.801401 3.147759
v -7.117434 3.801400 3.771214
v -7.429445 3.202396 3.147759
v -7.117434 3.202396 3.771214
v -6.746731 3.501898 3.208656
v -6.816886 3.801401 4.289414
v -6.432834 3.801401 4.873288
v -6.816886 3.202396 4.289414
v -6.432834 3.202396 4.873288
v -6.145352 3.501898 4.249131
v -6.036774 3.801400 5.326776
v -5.559768 3.801401 5.836757
v -6.036774 3.202396 5.326776
v -5.559768 3.202396 5.836757
v -5.391092 3.501898 5.190182
v -5.105480 3.801400 6.232712
v -4.543766 3.801400 6.645892
v -5.105480 3.202396 6.232712
v -4.543766 3.202395 6.645892
v -4.488746 3.501899 5.991763
v -4.047007 3.801401 6.985343
v -3.419893 3.801400 7.289770
v -4.047007 3.202396 6.985343
v -3.419893 3.202396 7.289770
v -3.463366 3.501898 6.621976
v -2.871641 3.801401 7.528756
v -2.213048 3.801400 7.754338
v -2.871641 3.202396 7.528756
v -2.213048 3.202396 7.754338
v -2.358553 3.501898 7.087850
v -1.628384 3.801400 7.883739
v -0.942880 3.801400 8.009766
v -1.628384 3.202396 7.883739
v -0.942880 3.202396 8.009766
v -1.195425 3.501898 7.381118
vt 0.000000 1.000000
vt 1.000000 0.000000
vt 0.000000 0.000000
vt 1.000000 1.000000
vt 1.000000 1.000000
vt 0.000000 0.000000
vt 1.000000 0.000000
vt 0.000000 1.000000
vt 0.000000 0.000000
vt 1.000000 1.000000
vt 1.000000 0.000000
vt 0.000000 1.000000
vt 1.000000 1.000000
vt 0.000000 0.000000
vt 1.000000 0.000000
vt 0.000000 1.000000
vt 0.000000 1.000000
vt 1.000000 0.000000
vt 0.000000 0.000000
vt 1.000000 1.000000
vt 1.000000 1.000000
vt 0.000000 0.000000
vt 1.000000 0.000000
vt 0.000000 1.000000
vt 0.000000 1.000000
vt 1.000000 0.000000
vt 0.000000 0.000000
vt 1.000000 1.000000
vt 1.000000 1.000000
vt 0.000000 0.000000
vt 1.000000 0.000000
vt 0.000000 1.000000
vt 0.000000 0.000000
vt 1.000000 1.000000
vt 1.000000 0.000000
vt 0.000000 1.000000
vt 1.000000 1.000000
vt 0.000000 0.000000
vt 1.000000 0.000000
vt 0.000000 1.000000
vt 0.000000 0.000000
vt 1.000000 1.000000
vt 1.000000 0.000000
vt 0.000000 1.000000
vt 1.000000 1.000000
vt 0.000000 0.000000
vt 1.000000 0.000000
vt 0.000000 1.000000
vt 0.000000 1.000000
vt 1.000000 0.000000
vt 0.000000 0.000000
vt 1.000000 1.000000
vt 1.000000 1.000000
vt 0.000000 0.000000
vt 1.000000 0.000000
vt 0.000000 1.000000
vt 0.000000 1.000000
vt 1.000000 0.000000
vt 0.000000 0.000000
vt 1.000000 1.000000
vt 1.000000 1.000000
vt 0.000000 0.000000
vt 1.000000 0.000000
vt 0.000000 1.000000
vt 0.000000 1.000000
vt 1.000000 0.000000
vt 0.000000 0.000000
vt 1.000000 1.000000
vt 1.000000 1.000000
vt 0.000000 0.000000
vt 1.000000 0.000000
vt 0.000000 1.000000
vt 0.000000 0.000000
vt 1.000000 1.000000
vt 1.000000 0.000000
vt 0.000000 1.000000
vt 1.000000 1.000000
vt 0.000000 0.000000
vt 1.000000 0.000000
vt 0.000000 1.000000
vt 0.000000 1.000000
vt 1.000000 0.000000
vt 0.000000 0.000000
vt 1.000000 1.000000
vt 1.000000 1.000000
vt 0.000000 0.000000
vt 1.000000 0.000000
vt 0.000000 1.000000
vt 0.000000 1.000000
vt 1.000000 0.000000
vt 0.000000 0.000000
vt 1.000000 1.000000
vt 1.000000 1.000000
vt 0.000000 0.000000
vt 1.000000 0.000000
vt 0.000000 1.000000
vt 0.000000 0.000000
vt 1.000000 1.000000
vt 1.000000 0.000000
vt 0.000000 1.000000
vt 1.000000 1.000000
vt 0.000000 0.000000
vt 1.000000 0.000000
vt 0.000000 1.000000
vt 0.000000 0.000000
vt 1.000000 1.000000
vt 1.000000 0.000000
vt 0.000000 1.000000
vt 1.000000 1.000000
vt 0.000000 0.000000
vt 1.000000 0.000000
vt 0.000000 1.000000
vt 0.000000 1.000000
vt 1.000000 0.000000
vt 0.000000 0.000000
vt 1.000000 1.000000
vt 1.000000 1.000000
vt 0.000000 0.000000
vt 1.000000 0.000000
vt 0.000000 1.000000
vt 0.000000 1.000000
vt 1.000000 0.000000
vt 0.000000 0.000000
vt 1.000000 1.000000
vt 1.000000 1.000000
vt 0.000000 0.000000
vt 1.000000 0.000000
vt 0.000000 1.000000
vt 0.000000 1.000000
vt 1.000000 0.000000
vt 0.000000 0.000000
vt 1.000000 1.000000
vt 1.000000 1.000000
vt 0.000000 0.000000
vt 1.000000 0.000000
vt 0.000000 1.000000
vt 0.000000 1.000000
vt 1.000000 0.000000
vt 0.000000 0.000000
vt 1.000000 1.000000
vt 1.000000 1.000000
vt 0.000000 0.000000
vt 1.000000 0.000000
vt 0.000000 1.000000
vt 0.000000 0.000000
vt 1.000000 1.000000
vt 1.000000 0.000000
vt 0.000000 1.000000
vt 1.000000 1.000000
vt 0.000000 0.000000
vt 1.000000 0.000000
vt 0.000000 1.000000
vt 0.000000 1.000000
vt 1.000000 0.000000
vt 0.000000 0.000000
vt 1.000000 1.000000
vt 1.000000 1.000000
vt 0.000000 0.000000
vt 1.000000 0.000000
vt 0.000000 1.000000
vt 0.000000 1.000000
vt 1.000000 0.000000
vt 0.000000 0.000000
vt 1.000000 1.000000
vt 1.000000 1.000000
vt 0.000000 0.000000
vt 1.000000 0.000000
vt 0.000000 1.000000
vt 0.000000 0.000000
vt 1.000000 1.000000
vt 1.000000 0.000000
vt 0.000000 1.000000
vt 1.000000 1.000000
vt 0.000000 0.000000
vt 1.000000 0.000000
vt 0.000000 1.000000
vt 0.000000 1.000000
vt 1.000000 0.000000
vt 0.000000 0.000000
vt 1.000000 1.000000
vt 1.000000 1.000000
vt 0.000000 0.000000
vt 1.000000 0.000000
vt 0.000000 1.000000
vt 0.000000 1.000000
vt 1.000000 0.000000
vt 0.000000 0.000000
vt 1.000000 1.000000
vt 1.000000 1.000000
vt 0.000000 0.000000
vt 1.000000 0.000000
vt 0.000000 1.000000
vt 0.000000 0.000000
vt 1.000000 1.000000
vt 1.000000 0.000000
vt 0.000000 1.000000
vt 1.000000 1.000000
vt 0.000000 0.000000
vt 1.000000 0.000000
vt 0.000000 1.000000
vt 0.000000 0.000000
vt 1.000000 1.000000
vt 1.000000 0.000000
vt 0.000000 1.000000
vt 1.000000 1.000000
vt 0.000000 0.000000
vt 1.000000 0.000000
vt 0.000000 1.000000
vt 0.000000 1.000000
vt 1.000000 0.000000
vt 0.000000 0.000000
vt 1.000000 1.000000
vt 1.000000 1.000000
vt 0.000000 0.000000
vt 1.000000 0.000000
vt 0.000000 1.000000
vt 0.000000 0.000000
vt 1.000000 1.000000
vt 1.000000 0.000000
vt 0.000000 1.000000
vt 1.000000 1.000000
vt 0.000000 0.000000
vt 1.000000 0.000000
vt 0.000000 1.000000
vt 0.000000 0.000000
vt 1.000000 1.000000
vt 1.000000 0.000000
vt 0.000000 1.000000
vt 1.000000 1.000000
vt 0.000000 0.000000
vt 1.000000 0.000000
vt 0.000000 1.000000
vt 0.000000 1.000000
vt 1.000000 0.000000
vt 0.000000 0.000000
vt 1.000000 1.000000
vt 1.000000 1.000000
vt 0.000000 0.000000
vt 1.000000 0.000000
vt 0.000000 1.000000
vt 0.000000 1.000000
vt 1.000000 0.000000
vt 0.000000 0.000000
vt 1.000000 1.000000
vt 1.000000 1.000000
vt 0.000000 0.000000
vt 1.000000 0.000000
vt 0.000000 1.000000
vt 0.000000 1.000000
vt 1.000000 0.000000
vt 0.000000 0.000000
vt 1.000000 1.000000
vt 1.000000 1.000000
vt 0.000000 0.000000
vt 1.000000 0.000000
vt 0.000000 1.000000
vt 0.000000 1.000000
vt 1.000000 0.000000
vt 0.000000 0.000000
vt 1.000000 1.000000
vt 1.000000 1.000000
vt 0.000000 0.000000
vt 1.000000 0.000000
vt 0.000000 1.000000
vn 0.0000 0.0000 1.0000
vn -0.0000 -0.8783 -0.4782
vn 0.0000 0.8783 -0.4782
vn 0.8437 0.0000 -0.5369
vn -0.8437 0.0000 -0.5369
vn 0.1830 -0.0000 0.9831
vn -0.0847 -0.8864 -0.4550
vn -0.0847 0.8864 -0.4550
vn 0.7571 0.0000 -0.6533
vn -0.9288 0.0000 -0.3706
vn 0.3235 0.0000 0.9462
vn -0.1478 -0.8896 -0.4322
vn -0.1478 0.8896 -0.4322
vn 0.6511 0.0000 -0.7590
vn -0.9772 0.0000 -0.2125
vn 0.4387 0.0000 0.8986
vn -0.2011 -0.8888 -0.4119
vn -0.2011 0.8888 -0.4119
vn 0.5267 0.0000 -0.8501
vn -0.9979 0.0000 -0.0641
vn 0.5944 0.0000 0.8042
vn -0.2809 -0.8813 -0.3800
vn -0.2809 0.8813 -0.3800
vn 0.3617 0.0000 -0.9323
vn -0.9964 0.0000 0.0846
vn 0.7319 0.0000 0.6814
vn -0.3424 -0.8838 -0.3188
vn -0.3424 0.8838 -0.3188
vn 0.2062 0.0000 -0.9785
vn -0.9670 0.0000 0.2547
vn 0.8352 0.0000 0.5500
vn -0.3815 -0.8896 -0.2513
vn -0.3815 0.8896 -0.2513
vn 0.0591 0.0000 -0.9983
vn -0.9079 0.0000 0.4191
vn 0.8940 0.0000 0.4480
vn -0.4084 -0.8896 -0.2047
vn -0.4084 0.8896 -0.2047
vn -0.0897 0.0000 -0.9960
vn -0.8346 0.0000 0.5509
vn 0.9564 0.0000 0.2921
vn -0.4474 -0.8838 -0.1366
vn -0.4474 0.8838 -0.1366
vn -0.2621 0.0000 -0.9651
vn -0.7419 0.0000 0.6705
vn 0.9934 0.0000 0.1148
vn -0.4691 -0.8815 -0.0542
vn -0.4691 0.8815 -0.0542
vn -0.4278 0.0000 -0.9039
vn -0.6246 0.0000 0.7809
vn 0.9974 0.0000 -0.0723
vn -0.4570 -0.8888 0.0332
vn -0.4570 0.8888 0.0331
vn -0.5582 0.0000 -0.8297
vn -0.4745 0.0000 0.8802
vn 0.9811 0.0000 -0.1934
vn -0.4481 -0.8896 0.0883
vn -0.4481 0.8896 0.0883
vn -0.6725 0.0000 -0.7401
vn -0.3332 0.0000 0.9429
vn 0.9423 0.0000 -0.3346
vn -0.4364 -0.8863 0.1550
vn -0.4364 0.8863 0.1550
vn -0.7844 0.0000 -0.6203
vn -0.1872 0.0000 0.9823
vn 0.8658 0.0000 -0.5004
vn -0.4132 -0.8788 0.2388
vn -0.4132 0.8788 0.2388
vn -0.8857 0.0000 -0.4643
vn -0.0377 0.0000 0.9993
vn 0.7609 0.0000 -0.6488
vn -0.3521 -0.8865 0.3002
vn -0.3521 0.8865 0.3002
vn -0.9453 0.0000 -0.3263
vn 0.1443 0.0000 0.9895
vn 0.6568 0.0000 -0.7540
vn -0.3000 -0.8896 0.3444
vn -0.3000 0.8896 0.3444
vn -0.9835 0.0000 -0.1812
vn 0.3029 0.0000 0.9530
vn 0.5577 0.0000 -0.8300
vn -0.2557 -0.8887 0.3806
vn -0.2557 0.8887 0.3806
vn -0.9995 0.0000 -0.0301
vn 0.4421 0.0000 0.8970
vn -0.5596 0.0000 -0.8288
vn 0.2562 -0.8890 0.3795
vn 0.2562 0.8890 0.3795
vn -0.4413 0.0000 0.8973
vn 0.9995 0.0000 -0.0323
vn -0.6564 0.0000 -0.7544
vn 0.2998 -0.8896 0.3446
vn 0.2998 0.8896 0.3446
vn -0.3021 0.0000 0.9533
vn 0.9833 0.0000 -0.1820
vn -0.7624 0.0000 -0.6471
vn 0.3532 -0.8862 0.2998
vn 0.3532 0.8862 0.2998
vn -0.1421 0.0000 0.9898
vn 0.9450 0.0000 -0.3270
vn -0.8669 0.0000 -0.4984
vn 0.4136 -0.8789 0.2378
vn 0.4136 0.8789 0.2378
vn 0.0391 0.0000 0.9992
vn 0.8848 0.0000 -0.4660
vn -0.9431 0.0000 -0.3325
vn 0.4362 -0.8866 0.1538
vn 0.4362 0.8866 0.1538
vn 0.1880 0.0000 0.9822
vn 0.7830 0.0000 -0.6221
vn -0.9810 0.0000 -0.1939
vn 0.4480 -0.8896 0.0886
vn 0.4480 0.8896 0.0886
vn 0.3339 0.0000 0.9426
vn 0.6719 0.0000 -0.7406
vn -0.9975 0.0000 -0.0700
vn 0.4577 -0.8885 0.0321
vn 0.4577 0.8885 0.0321
vn 0.4765 0.0000 0.8792
vn 0.5575 0.0000 -0.8302
vn -0.9931 0.0000 0.1170
vn 0.4696 -0.8811 -0.0553
vn 0.4696 0.8811 -0.0553
vn 0.6264 0.0000 0.7795
vn 0.4271 0.0000 -0.9042
vn -0.9557 0.0000 0.2943
vn 0.4465 -0.8842 -0.1375
vn 0.4465 0.8842 -0.1375
vn 0.7425 0.0000 0.6699
vn 0.2598 0.0000 -0.9657
vn -0.8943 0.0000 0.4475
vn 0.4085 -0.8896 -0.2044
vn 0.4085 0.8896 -0.2044
vn 0.8350 0.0000 0.5502
vn 0.0888 0.0000 -0.9960
vn -0.8355 0.0000 0.5495
vn 0.3817 -0.8895 -0.2511
vn 0.3817 0.8895 -0.2511
vn 0.9083 0.0000 0.4183
vn -0.0599 0.0000 -0.9982
vn -0.7303 0.0000 0.6831
vn 0.3421 -0.8835 -0.3200
vn 0.3421 0.8835 -0.3200
vn 0.9676 0.0000 0.2524
vn -0.2070 0.0000 -0.9783
vn -0.5925 0.0000 0.8055
vn 0.2796 -0.8816 -0.3802
vn 0.2796 0.8816 -0.3802
vn 0.9965 0.0000 0.0838
vn -0.3639 0.0000 -0.9314
vn -0.4367 0.0000 0.8996
vn 0.1999 -0.8891 -0.4118
vn 0.1999 0.8891 -0.4118
vn 0.9979 0.0000 -0.0650
vn -0.5285 0.0000 -0.8489
vn -0.3240 0.0000 0.9460
vn 0.1480 -0.8896 -0.4321
vn 0.1480 0.8896 -0.4321
vn 0.9770 0.0000 -0.2133
vn -0.6517 0.0000 -0.7584
vn -0.1808 0.0000 0.9835
vn 0.0838 -0.8861 -0.4558
vn 0.0838 0.8861 -0.4558
vn 0.9279 0.0000 -0.3728
vn -0.7577 0.0000 -0.6526
usemtl Concrete
s off
f 3/1/1 2/2/1 1/3/1
f 4/4/2 3/1/2 5/5/2
f 1/3/3 2/2/3 5/6/3
f 2/2/4 4/4/4 5/7/4
f 3/1/5 1/3/5 5/8/5
f 6/9/6 9/10/6 7/11/6
f 9/10/7 8/12/7 10/13/7
f 6/9/8 7/11/8 10/14/8
f 7/11/9 9/10/9 10/15/9
f 8/12/10 6/9/10 10/16/10
f 13/17/11 12/18/11 11/19/11
f 14/20/12 13/17/12 15/21/12
f 11/19/13 12/18/13 15/22/13
f 12/18/14 14/20/14 15/23/14
f 13/17/15 11/19/15 15/24/15
f 18/25/16 17/26/16 16/27/16
f 19/28/17 18/25/17 20/29/17
f 16/27/18 17/26/18 20/30/18
f 17/26/19 19/28/19 20/31/19
f 18/25/20 16/27/20 20/32/20
f 21/33/21 24/34/21 22/35/21
f 24/34/22 23/36/22 25/37/22
f 21/33/23 22/35/23 25/38/23
f 22/35/24 24/34/24 25/39/24
f 23/36/25 21/33/25 25/40/25
f 26/41/26 29/42/26 27/43/26
f 29/42/27 28/44/27 30/45/27
f 26/41/28 27/43/28 30/46/28
f 27/43/29 29/42/29 30/47/29
f 28/44/30 26/41/30 30/48/30
f 33/49/31 32/50/31 31/51/31
f 34/52/32 33/49/32 35/53/32
f 31/51/33 32/50/33 35/54/33
f 32/50/34 34/52/34 35/55/34
f 33/49/35 31/51/35 35/56/35
f 38/57/36 37/58/36 36/59/36
f 39/60/37 38/57/37 40/61/37
f 36/59/38 37/58/38 40/62/38
f 37/58/39 39/60/39 40/63/39
f 38/57/40 36/59/40 40/64/40
f 43/65/41 42/66/41 41/67/41
f 44/68/42 43/65/42 45/69/42
f 41/67/43 42/66/43 45/70/43
f 42/66/44 44/68/44 45/71/44
f 43/65/45 41/67/45 45/72/45
f 46/73/46 49/74/46 47/75/46
f 49/74/47 48/76/47 50/77/47
f 46/73/48 47/75/48 50/78/48
f 47/75/49 49/74/49 50/79/49
f 48/76/50 46/73/50 50/80/50
f 53/81/51 52/82/51 51/83/51
f 54/84/52 53/81/52 55/85/52
f 51/83/53 52/82/53 55/86/53
f 52/82/54 54/84/54 55/87/54
f 53/81/55 51/83/55 55/88/55
f 58/89/56 57/90/56 56/91/56
f 59/92/57 58/89/57 60/93/57
f 56/91/58 57/90/58 60/94/58
f 57/90/59 59/92/59 60/95/59
f 58/89/60 56/91/60 60/96/60
f 61/97/61 64/98/61 62/99/61
f 64/98/62 63/100/62 65/101/62
f 61/97/63 62/99/63 65/102/63
f 62/99/64 64/98/64 65/103/64
f 63/100/65 61/97/65 65/104/65
f 66/105/66 69/106/66 67/107/66
f 69/106/67 68/108/67 70/109/67
f 66/105/68 67/107/68 70/110/68
f 67/107/69 69/106/69 70/111/69
f 68/108/70 66/105/70 70/112/70
f 73/113/71 72/114/71 71/115/71
f 74/116/72 73/113/72 75/117/72
f 71/115/73 72/114/73 75/118/73
f 72/114/74 74/116/74 75/119/74
f 73/113/75 71/115/75 75/120/75
f 78/121/76 77/122/76 76/123/76
f 79/124/77 78/121/77 80/125/77
f 76/123/78 77/122/78 80/126/78
f 77/122/79 79/124/79 80/127/79
f 78/121/80 76/123/80 80/128/80
f 83/129/81 82/130/81 81/131/81
f 84/132/82 83/129/82 85/133/82
f 81/131/83 82/130/83 85/134/83
f 82/130/84 84/132/84 85/135/84
f 83/129/85 81/131/85 85/136/85
f 88/137/86 87/138/86 86/139/86
f 89/140/87 88/137/87 90/141/87
f 86/139/88 87/138/88 90/142/88
f 87/138/89 89/140/89 90/143/89
f 88/137/90 86/139/90 90/144/90
f 91/145/91 94/146/91 92/147/91
f 94/146/92 93/148/92 95/149/92
f 91/145/93 92/147/93 95/150/93
f 92/147/94 94/146/94 95/151/94
f 93/148/95 91/145/95 95/152/95
f 98/153/96 97/154/96 96/155/96
f 99/156/97 98/153/97 100/157/97
f 96/155/98 97/154/98 100/158/98
f 97/154/99 99/156/99 100/159/99
f 98/153/100 96/155/100 100/160/100
f 103/161/101 102/162/101 101/163/101
f 104/164/102 103/161/102 105/165/102
f 101/163/103 102/162/103 105/166/103
f 102/162/104 104/164/104 105/167/104
f 103/161/105 101/163/105 105/168/105
f 106/169/106 109/170/106 107/171/106
f 109/170/107 108/172/107 110/173/107
f 106/169/108 107/171/108 110/174/108
f 107/171/109 109/170/109 110/175/109
f 108/172/110 106/169/110 110/176/110
f 113/177/111 112/178/111 111/179/111
f 114/180/112 113/177/112 115/181/112
f 111/179/113 112/178/113 115/182/113
f 112/178/114 114/180/114 115/183/114
f 113/177/115 111/179/115 115/184/115
f 118/185/116 117/186/116 116/187/116
f 119/188/117 118/185/117 120/189/117
f 116/187/118 117/186/118 120/190/118
f 117/186/119 119/188/119 120/191/119
f 118/185/120 116/187/120 120/192/120
f 121/193/121 124/194/121 122/195/121
f 124/194/122 123/196/122 125/197/122
f 121/193/123 122/195/123 125/198/123
f 122/195/124 124/194/124 125/199/124
f 123/196/125 121/193/125 125/200/125
f 126/201/126 129/202/126 127/203/126
f 129/202/127 128/204/127 130/205/127
f 126/201/128 127/203/128 130/206/128
f 127/203/129 129/202/129 130/207/129
f 128/204/130 126/201/130 130/208/130
f 133/209/131 132/210/131 131/211/131
f 134/212/132 133/209/132 135/213/132
f 131/211/133 132/210/133 135/214/133
f 132/210/134 134/212/134 135/215/134
f 133/209/135 131/211/135 135/216/135
f 136/217/136 139/218/136 137/219/136
f 139/218/137 138/220/137 140/221/137
f 136/217/138 137/219/138 140/222/138
f 137/219/139 139/218/139 140/223/139
f 138/220/140 136/217/140 140/224/140
f 141/225/141 144/226/141 142/227/141
f 144/226/142 143/228/142 145/229/142
f 141/225/143 142/227/143 145/230/143
f 142/227/144 144/226/144 145/231/144
f 143/228/145 141/225/145 145/232/145
f 148/233/146 147/234/146 146/235/146
f 149/236/147 148/233/147 150/237/147
f 146/235/148 147/234/148 150/238/148
f 147/234/149 149/236/149 150/239/149
f 148/233/150 146/235/150 150/240/150
f 153/241/151 152/242/151 151/243/151
f 154/244/152 153/241/152 155/245/152
f 151/243/153 152/242/153 155/246/153
f 152/242/154 154/244/154 155/247/154
f 153/241/155 151/243/155 155/248/155
f 158/249/156 157/250/156 156/251/156
f 159/252/157 158/249/157 160/253/157
f 156/251/158 157/250/158 160/254/158
f 157/250/159 159/252/159 160/255/159
f 158/249/160 156/251/160 160/256/160
f 163/257/161 162/258/161 161/259/161
f 164/260/162 163/257/162 165/261/162
f 161/259/163 162/258/163 165/262/163
f 162/258/164 164/260/164 165/263/164
f 163/257/165 161/259/165 165/264/165
f 3/1/1 4/4/1 2/2/1
f 6/9/6 8/12/6 9/10/6
f 13/17/11 14/20/11 12/18/11
f 18/25/16 19/28/16 17/26/16
f 21/33/21 23/36/21 24/34/21
f 26/41/26 28/44/26 29/42/26
f 33/49/31 34/52/31 32/50/31
f 38/57/36 39/60/36 37/58/36
f 43/65/41 44/68/41 42/66/41
f 46/73/46 48/76/46 49/74/46
f 53/81/51 54/84/51 52/82/51
f 58/89/56 59/92/56 57/90/56
f 61/97/61 63/100/61 64/98/61
f 66/105/66 68/108/66 69/106/66
f 73/113/71 74/116/71 72/114/71
f 78/121/76 79/124/76 77/122/76
f 83/129/81 84/132/81 82/130/81
f 88/137/86 89/140/86 87/138/86
f 91/145/91 93/148/91 94/146/91
f 98/153/96 99/156/96 97/154/96
f 103/161/101 104/164/101 102/162/101
f 106/169/106 108/172/106 109/170/106
f 113/177/111 114/180/111 112/178/111
f 118/185/116 119/188/116 117/186/116
f 121/193/121 123/196/121 124/194/121
f 126/201/126 128/204/126 129/202/126
f 133/209/131 134/212/131 132/210/131
f 136/217/136 138/220/136 139/218/136
f 141/225/141 143/228/141 144/226/141
f 148/233/146 149/236/146 147/234/146
f 153/241/151 154/244/151 152/242/151
f 158/249/156 159/252/156 157/250/156
f 163/257/161 164/260/161 162/258/161
